<svg xmlns="http://www.w3.org/2000/svg" width="175.24" height="35" viewBox="0 0 175.24 35"><rect class="svg__rect" x="0" y="0" width="105.2" height="35" fill="#1D7FF5"/><rect class="svg__rect" x="103.2" y="0" width="72.04" height="35" fill="#164FB8"/><path class="svg__text" d="M15.78 22L14.31 22L14.31 13.47L15.78 13.47L15.78 22ZM22.27 14.66L19.64 14.66L19.64 13.47L26.40 13.47L26.40 14.66L23.74 14.66L23.74 22L22.27 22L22.27 14.66ZM32.62 22L30.16 22L30.16 13.47L32.68 13.47Q33.81 13.47 34.69 13.97Q35.56 14.48 36.04 15.40Q36.52 16.33 36.52 17.52L36.52 17.52L36.52 17.95Q36.52 19.16 36.04 20.08Q35.56 21.00 34.66 21.50Q33.77 22 32.62 22L32.62 22ZM31.64 14.66L31.64 20.82L32.61 20.82Q33.78 20.82 34.40 20.09Q35.02 19.36 35.04 17.99L35.04 17.99L35.04 17.52Q35.04 16.13 34.43 15.40Q33.83 14.66 32.68 14.66L32.68 14.66L31.64 14.66ZM46.57 22L40.99 22L40.99 13.47L46.53 13.47L46.53 14.66L42.47 14.66L42.47 17.02L45.98 17.02L45.98 18.19L42.47 18.19L42.47 20.82L46.57 20.82L46.57 22ZM53.06 22L50.00 13.47L51.62 13.47L53.77 20.14L55.94 13.47L57.56 13.47L54.49 22L53.06 22ZM62.90 22L60.93 13.47L62.40 13.47L63.72 19.88L65.35 13.47L66.59 13.47L68.21 19.89L69.52 13.47L70.99 13.47L69.02 22L67.60 22L65.98 15.77L64.32 22L62.90 22ZM74.93 19.16L74.93 19.16L74.93 13.47L76.40 13.47L76.40 19.18Q76.40 20.03 76.84 20.48Q77.27 20.93 78.11 20.93L78.11 20.93Q79.82 20.93 79.82 19.13L79.82 19.13L79.82 13.47L81.30 13.47L81.30 19.17Q81.30 20.53 80.43 21.32Q79.56 22.12 78.11 22.12L78.11 22.12Q76.65 22.12 75.79 21.33Q74.93 20.55 74.93 19.16ZM86.47 14.03L85.64 14.03L85.64 13.47L87.96 13.47L87.96 14.03L87.15 14.03L87.15 16.62L86.47 16.62L86.47 14.03ZM89.05 16.63L88.40 16.63L88.40 13.47L89.20 13.47L89.96 15.70L90.73 13.47L91.51 13.47L91.51 16.63L90.86 16.63L90.86 14.45L90.14 16.63L89.77 16.63L89.05 14.45L89.05 16.63Z" fill="#FFFFFF"/><path class="svg__text" d="M121.36 22L117.39 22L117.39 13.60L121.36 13.60Q122.74 13.60 123.81 14.12Q124.88 14.63 125.47 15.58Q126.05 16.53 126.05 17.80L126.05 17.80Q126.05 19.07 125.47 20.02Q124.88 20.97 123.81 21.48Q122.74 22 121.36 22L121.36 22ZM119.77 15.50L119.77 20.10L121.27 20.10Q122.34 20.10 123.00 19.49Q123.65 18.88 123.65 17.80L123.65 17.80Q123.65 16.72 123.00 16.11Q122.34 15.50 121.27 15.50L121.27 15.50L119.77 15.50ZM130.35 17.80L130.35 17.80Q130.35 16.55 130.96 15.55Q131.56 14.56 132.63 14.00Q133.69 13.43 135.02 13.43L135.02 13.43Q136.35 13.43 137.41 14.00Q138.48 14.56 139.08 15.55Q139.69 16.55 139.69 17.80L139.69 17.80Q139.69 19.05 139.08 20.04Q138.48 21.04 137.42 21.60Q136.35 22.17 135.02 22.17L135.02 22.17Q133.69 22.17 132.63 21.60Q131.56 21.04 130.96 20.04Q130.35 19.05 130.35 17.80ZM132.75 17.80L132.75 17.80Q132.75 18.51 133.05 19.05Q133.35 19.60 133.87 19.90Q134.39 20.20 135.02 20.20L135.02 20.20Q135.66 20.20 136.17 19.90Q136.69 19.60 136.99 19.05Q137.29 18.51 137.29 17.80L137.29 17.80Q137.29 17.09 136.99 16.54Q136.69 16 136.17 15.70Q135.66 15.40 135.02 15.40L135.02 15.40Q134.38 15.40 133.87 15.70Q133.35 16 133.05 16.54Q132.75 17.09 132.75 17.80ZM143.99 17.80L143.99 17.80Q143.99 16.54 144.59 15.54Q145.18 14.55 146.24 13.99Q147.29 13.43 148.61 13.43L148.61 13.43Q149.76 13.43 150.68 13.84Q151.61 14.25 152.22 15.02L152.22 15.02L150.71 16.39Q149.90 15.40 148.73 15.40L148.73 15.40Q148.04 15.40 147.51 15.70Q146.98 16 146.68 16.54Q146.39 17.09 146.39 17.80L146.39 17.80Q146.39 18.51 146.68 19.05Q146.98 19.60 147.51 19.90Q148.04 20.20 148.73 20.20L148.73 20.20Q149.90 20.20 150.71 19.22L150.71 19.22L152.22 20.58Q151.61 21.35 150.69 21.76Q149.76 22.17 148.61 22.17L148.61 22.17Q147.29 22.17 146.24 21.61Q145.18 21.05 144.59 20.05Q143.99 19.06 143.99 17.80ZM156.17 21.24L156.17 21.24L156.95 19.49Q157.51 19.86 158.26 20.09Q159.00 20.32 159.72 20.32L159.72 20.32Q161.09 20.32 161.09 19.64L161.09 19.64Q161.09 19.28 160.70 19.11Q160.31 18.93 159.45 18.74L159.45 18.74Q158.50 18.53 157.86 18.30Q157.23 18.06 156.77 17.55Q156.32 17.03 156.32 16.16L156.32 16.16Q156.32 15.39 156.74 14.77Q157.16 14.15 157.99 13.79Q158.83 13.43 160.03 13.43L160.03 13.43Q160.86 13.43 161.66 13.62Q162.47 13.80 163.09 14.17L163.09 14.17L162.35 15.93Q161.15 15.28 160.02 15.28L160.02 15.28Q159.31 15.28 158.99 15.49Q158.67 15.70 158.67 16.04L158.67 16.04Q158.67 16.37 159.05 16.54Q159.43 16.71 160.28 16.89L160.28 16.89Q161.25 17.10 161.88 17.33Q162.51 17.56 162.97 18.07Q163.43 18.58 163.43 19.46L163.43 19.46Q163.43 20.21 163.01 20.83Q162.59 21.44 161.75 21.80Q160.91 22.17 159.71 22.17L159.71 22.17Q158.69 22.17 157.73 21.92Q156.77 21.67 156.17 21.24Z" fill="#FFFFFF" x="116.2"/></svg>