<?xml version="1.0" encoding="UTF-8" standalone="no"?> <!-- Created with Vectornator for iOS (http://vectornator.io/) --><!DOCTYPE svg PUBLIC "-//W3C//DTD SVG 1.1//EN" "http://www.w3.org/Graphics/SVG/1.1/DTD/svg11.dtd">
<svg height="100%" style="fill-rule:nonzero;clip-rule:evenodd;stroke-linecap:round;stroke-linejoin:round;" xmlns:xlink="http://www.w3.org/1999/xlink" xmlns="http://www.w3.org/2000/svg" xml:space="preserve" width="100%" xmlns:vectornator="http://vectornator.io" version="1.1" viewBox="0 0 1440 1440">
<metadata>
<vectornator:setting key="DimensionsVisible" value="1"/>
<vectornator:setting key="PencilOnly" value="1"/>
<vectornator:setting key="SnapToPoints" value="0"/>
<vectornator:setting key="OutlineMode" value="0"/>
<vectornator:setting key="CMYKEnabledKey" value="1"/>
<vectornator:setting key="RulersVisible" value="1"/>
<vectornator:setting key="SnapToEdges" value="0"/>
<vectornator:setting key="GuidesVisible" value="1"/>
<vectornator:setting key="DisplayWhiteBackground" value="0"/>
<vectornator:setting key="doHistoryDisabled" value="0"/>
<vectornator:setting key="SnapToGuides" value="1"/>
<vectornator:setting key="TimeLapseWatermarkDisabled" value="0"/>
<vectornator:setting key="Units" value="Pixels"/>
<vectornator:setting key="DynamicGuides" value="1"/>
<vectornator:setting key="IsolateActiveLayer" value="0"/>
<vectornator:setting key="SnapToGrid" value="0"/>
</metadata>
<defs/>
<g id="图层 1" vectornator:layerName="图层 1">
<path stroke="#000000" stroke-width="1" d="M277.823+386.5L1162.18+386.5C1199.01+386.5+1228.88+416.363+1228.88+453.2L1228.88+986.8C1228.88+1023.64+1199.01+1053.5+1162.18+1053.5L277.823+1053.5C240.985+1053.5+211.123+1023.64+211.123+986.8L211.123+453.2C211.123+416.363+240.985+386.5+277.823+386.5Z" fill="#142d41" stroke-linecap="round" opacity="1" stroke-linejoin="round"/>
</g>
<g id="图层 2" vectornator:layerName="图层 2">
<path stroke="#000000" stroke-width="1" d="M295.265+655.727L1149.36+655.727C1159.3+655.727+1167.36+663.786+1167.36+673.727L1167.36+997.727C1167.36+1007.67+1159.3+1015.73+1149.36+1015.73L295.265+1015.73C285.323+1015.73+277.265+1007.67+277.265+997.727L277.265+673.727C277.265+663.786+285.323+655.727+295.265+655.727Z" fill="#f9f9f9" stroke-linecap="round" fill-opacity="0.875327" opacity="1" stroke-linejoin="round"/>
</g>
<g id="图层 4" vectornator:layerName="图层 4" opacity="0.331197">
<path d="M408.804+687.173L457.612+687.173C463.188+687.173+467.708+691.693+467.708+697.269L467.708+746.077C467.708+751.653+463.188+756.173+457.612+756.173L408.804+756.173C403.228+756.173+398.708+751.653+398.708+746.077L398.708+697.269C398.708+691.693+403.228+687.173+408.804+687.173Z" opacity="0.80038" fill="#142d41"/>
<path d="M491.284+687.932L540.092+687.932C545.668+687.932+550.188+692.452+550.188+698.028L550.188+746.836C550.188+752.412+545.668+756.932+540.092+756.932L491.284+756.932C485.708+756.932+481.188+752.412+481.188+746.836L481.188+698.028C481.188+692.452+485.708+687.932+491.284+687.932Z" opacity="0.798442" fill="#142d41"/>
<path d="M573.179+687.932L621.987+687.932C627.563+687.932+632.083+692.452+632.083+698.028L632.083+746.836C632.083+752.412+627.563+756.932+621.987+756.932L573.179+756.932C567.604+756.932+563.083+752.412+563.083+746.836L563.083+698.028C563.083+692.452+567.604+687.932+573.179+687.932Z" opacity="0.432163" fill="#142d41"/>
<path d="M328.334+687.932L377.143+687.932C382.718+687.932+387.239+692.452+387.239+698.028L387.239+746.836C387.239+752.412+382.718+756.932+377.143+756.932L328.334+756.932C322.759+756.932+318.239+752.412+318.239+746.836L318.239+698.028C318.239+692.452+322.759+687.932+328.334+687.932Z" opacity="0.432163" fill="#142d41"/>
<path d="M654.333+687.392L703.141+687.392C708.717+687.392+713.237+691.912+713.237+697.488L713.237+746.296C713.237+751.872+708.717+756.392+703.141+756.392L654.333+756.392C648.757+756.392+644.237+751.872+644.237+746.296L644.237+697.488C644.237+691.912+648.757+687.392+654.333+687.392Z" opacity="0.804256" fill="#142d41"/>
<path d="M737.622+687.932L786.43+687.932C792.006+687.932+796.526+692.452+796.526+698.028L796.526+746.836C796.526+752.412+792.006+756.932+786.43+756.932L737.622+756.932C732.046+756.932+727.526+752.412+727.526+746.836L727.526+698.028C727.526+692.452+732.046+687.932+737.622+687.932Z" opacity="0.432163" fill="#142d41"/>
<path d="M818.899+687.485L867.707+687.485C873.283+687.485+877.803+692.005+877.803+697.581L877.803+746.389C877.803+751.965+873.283+756.485+867.707+756.485L818.899+756.485C813.323+756.485+808.803+751.965+808.803+746.389L808.803+697.581C808.803+692.005+813.323+687.485+818.899+687.485Z" opacity="0.798442" fill="#142d41"/>
<path d="M900.058+688.168L948.866+688.168C954.442+688.168+958.962+692.688+958.962+698.264L958.962+747.072C958.962+752.648+954.442+757.168+948.866+757.168L900.058+757.168C894.482+757.168+889.962+752.648+889.962+747.072L889.962+698.264C889.962+692.688+894.482+688.168+900.058+688.168Z" opacity="0.796504" fill="#142d41"/>
<path d="M981.658+687.932L1030.47+687.932C1036.04+687.932+1040.56+692.452+1040.56+698.028L1040.56+746.836C1040.56+752.412+1036.04+756.932+1030.47+756.932L981.658+756.932C976.082+756.932+971.562+752.412+971.562+746.836L971.562+698.028C971.562+692.452+976.082+687.932+981.658+687.932Z" opacity="0.432163" fill="#142d41"/>
<path d="M1064.93+689.029L1113.73+689.029C1119.31+689.029+1123.83+693.549+1123.83+699.125L1123.83+747.933C1123.83+753.509+1119.31+758.029+1113.73+758.029L1064.93+758.029C1059.35+758.029+1054.83+753.509+1054.83+747.933L1054.83+699.125C1054.83+693.549+1059.35+689.029+1064.93+689.029Z" opacity="0.432163" fill="#142d41"/>
<path d="M355.425+765.477L404.234+765.477C409.809+765.477+414.33+769.997+414.33+775.573L414.33+824.381C414.33+829.957+409.809+834.477+404.234+834.477L355.425+834.477C349.85+834.477+345.33+829.957+345.33+824.381L345.33+775.573C345.33+769.997+349.85+765.477+355.425+765.477Z" opacity="0.432163" fill="#142d41"/>
<path d="M437.991+765.477L486.799+765.477C492.375+765.477+496.895+769.997+496.895+775.573L496.895+824.381C496.895+829.957+492.375+834.477+486.799+834.477L437.991+834.477C432.415+834.477+427.895+829.957+427.895+824.381L427.895+775.573C427.895+769.997+432.415+765.477+437.991+765.477Z" opacity="0.432163" fill="#142d41"/>
<path d="M520.009+765.477L568.817+765.477C574.393+765.477+578.913+769.997+578.913+775.573L578.913+824.381C578.913+829.957+574.393+834.477+568.817+834.477L520.009+834.477C514.433+834.477+509.913+829.957+509.913+824.381L509.913+775.573C509.913+769.997+514.433+765.477+520.009+765.477Z" opacity="0.80038" fill="#142d41"/>
<path d="M601.984+765.477L650.792+765.477C656.368+765.477+660.888+769.997+660.888+775.573L660.888+824.381C660.888+829.957+656.368+834.477+650.792+834.477L601.984+834.477C596.408+834.477+591.888+829.957+591.888+824.381L591.888+775.573C591.888+769.997+596.408+765.477+601.984+765.477Z" opacity="0.432163" fill="#142d41"/>
<path d="M684.393+765.477L733.201+765.477C738.777+765.477+743.297+769.997+743.297+775.573L743.297+824.381C743.297+829.957+738.777+834.477+733.201+834.477L684.393+834.477C678.817+834.477+674.297+829.957+674.297+824.381L674.297+775.573C674.297+769.997+678.817+765.477+684.393+765.477Z" opacity="0.432163" fill="#142d41"/>
<path d="M765.918+765.477L814.727+765.477C820.302+765.477+824.823+769.997+824.823+775.573L824.823+824.381C824.823+829.957+820.302+834.477+814.727+834.477L765.918+834.477C760.343+834.477+755.823+829.957+755.823+824.381L755.823+775.573C755.823+769.997+760.343+765.477+765.918+765.477Z" opacity="0.432163" fill="#142d41"/>
<path d="M846.564+765.477L895.372+765.477C900.948+765.477+905.468+769.997+905.468+775.573L905.468+824.381C905.468+829.957+900.948+834.477+895.372+834.477L846.564+834.477C840.988+834.477+836.468+829.957+836.468+824.381L836.468+775.573C836.468+769.997+840.988+765.477+846.564+765.477Z" opacity="0.432163" fill="#142d41"/>
<path d="M928.908+765.477L977.716+765.477C983.292+765.477+987.812+769.997+987.812+775.573L987.812+824.381C987.812+829.957+983.292+834.477+977.716+834.477L928.908+834.477C923.332+834.477+918.812+829.957+918.812+824.381L918.812+775.573C918.812+769.997+923.332+765.477+928.908+765.477Z" opacity="0.432163" fill="#142d41"/>
<path d="M1010.89+765.477L1059.7+765.477C1065.27+765.477+1069.79+769.997+1069.79+775.573L1069.79+824.381C1069.79+829.957+1065.27+834.477+1059.7+834.477L1010.89+834.477C1005.31+834.477+1000.79+829.957+1000.79+824.381L1000.79+775.573C1000.79+769.997+1005.31+765.477+1010.89+765.477Z" opacity="0.432163" fill="#142d41"/>
<path d="M395.129+845.322L443.937+845.322C449.513+845.322+454.033+849.842+454.033+855.418L454.033+904.226C454.033+909.802+449.513+914.322+443.937+914.322L395.129+914.322C389.553+914.322+385.033+909.802+385.033+904.226L385.033+855.418C385.033+849.842+389.553+845.322+395.129+845.322Z" opacity="0.432163" fill="#142d41"/>
<path d="M476.048+845.935L524.856+845.935C530.432+845.935+534.952+850.456+534.952+856.031L534.952+904.84C534.952+910.415+530.432+914.935+524.856+914.935L476.048+914.935C470.472+914.935+465.952+910.415+465.952+904.84L465.952+856.031C465.952+850.456+470.472+845.935+476.048+845.935Z" opacity="0.432163" fill="#142d41"/>
<path d="M557.913+845.935L606.721+845.935C612.297+845.935+616.817+850.456+616.817+856.031L616.817+904.84C616.817+910.415+612.297+914.935+606.721+914.935L557.913+914.935C552.337+914.935+547.817+910.415+547.817+904.84L547.817+856.031C547.817+850.456+552.337+845.935+557.913+845.935Z" opacity="0.432163" fill="#142d41"/>
<path d="M639.884+845.935L688.692+845.935C694.268+845.935+698.788+850.456+698.788+856.031L698.788+904.84C698.788+910.415+694.268+914.935+688.692+914.935L639.884+914.935C634.308+914.935+629.788+910.415+629.788+904.84L629.788+856.031C629.788+850.456+634.308+845.935+639.884+845.935Z" opacity="0.802318" fill="#142d41"/>
<path d="M720.096+846.125L768.905+846.125C774.48+846.125+779+850.645+779+856.221L779+905.029C779+910.605+774.48+915.125+768.905+915.125L720.096+915.125C714.521+915.125+710+910.605+710+905.029L710+856.221C710+850.645+714.521+846.125+720.096+846.125Z" opacity="0.432163" fill="#142d41"/>
<path d="M803.263+846.125L852.071+846.125C857.646+846.125+862.167+850.645+862.167+856.221L862.167+905.029C862.167+910.605+857.646+915.125+852.071+915.125L803.263+915.125C797.687+915.125+793.167+910.605+793.167+905.029L793.167+856.221C793.167+850.645+797.687+846.125+803.263+846.125Z" opacity="0.432163" fill="#142d41"/>
<path d="M884.679+846.125L933.487+846.125C939.063+846.125+943.583+850.645+943.583+856.221L943.583+905.029C943.583+910.605+939.063+915.125+933.487+915.125L884.679+915.125C879.103+915.125+874.583+910.605+874.583+905.029L874.583+856.221C874.583+850.645+879.103+846.125+884.679+846.125Z" opacity="0.432163" fill="#142d41"/>
<path d="M477.25+925.233L979.389+925.233C985.15+925.233+989.82+929.902+989.82+935.663L989.82+983.802C989.82+989.563+985.15+994.233+979.389+994.233L477.25+994.233C471.489+994.233+466.82+989.563+466.82+983.802L466.82+935.663C466.82+929.902+471.489+925.233+477.25+925.233Z" opacity="0.432163" fill="#142d41"/>
</g>
<g id="图层 3" vectornator:layerName="图层 3">
<g opacity="1">
<path d="M427.138+494.871C427.838+496.271+428.479+497.846+429.062+499.596C429.646+501.346+429.938+503.213+429.938+505.196C429.938+509.746+429.004+513.83+427.138+517.446C425.271+521.063+422.792+524.125+419.7+526.634C416.608+529.142+413.021+531.038+408.938+532.321C404.854+533.605+400.596+534.246+396.163+534.246C392.779+534.246+389.629+533.721+386.713+532.671C383.796+531.621+381.258+530.105+379.1+528.121C376.942+526.138+375.25+523.746+374.025+520.946C372.8+518.146+372.188+514.996+372.188+511.496C372.188+504.38+374.229+498.196+378.312+492.946C382.396+487.696+387.821+483.205+394.588+479.471C401.354+475.738+409.054+472.705+417.688+470.371C426.321+468.038+435.187+466.2+444.288+464.859C453.388+463.517+462.342+462.613+471.15+462.146C479.958+461.68+487.862+461.446+494.863+461.446C502.796+461.446+509.067+461.155+513.675+460.571C518.283+459.988+521.812+459.696+524.263+459.696C525.546+459.696+526.742+459.93+527.85+460.396C528.958+460.863+529.513+461.563+529.513+462.496C529.513+463.546+528.9+464.275+527.675+464.684C526.45+465.092+525.138+465.296+523.737+465.296C523.387+465.296+522.658+465.267+521.55+465.209C520.442+465.15+519.129+465.063+517.612+464.946C516.096+464.83+514.579+464.713+513.062+464.596C511.546+464.48+510.263+464.363+509.212+464.246C501.862+467.28+495.563+470.925+490.312+475.184C485.062+479.442+480.396+484.109+476.312+489.184C472.229+494.259+468.583+499.596+465.375+505.196C462.167+510.796+458.988+516.513+455.838+522.346C452.687+528.18+449.392+534.013+445.95+539.846C442.508+545.68+438.513+551.338+433.963+556.821C426.379+565.921+417.775+573.359+408.15+579.134C398.525+584.909+387.821+587.796+376.038+587.796C372.654+587.796+368.95+587.446+364.925+586.746C360.9+586.046+357.138+584.85+353.638+583.159C350.137+581.467+347.221+579.192+344.888+576.334C342.554+573.475+341.388+569.888+341.388+565.571C341.388+562.305+342.321+559.388+344.188+556.821C346.054+554.255+348.737+552.971+352.238+552.971C354.921+552.971+357.079+553.759+358.713+555.334C360.346+556.909+361.163+558.98+361.163+561.546C361.163+563.88+360.638+565.659+359.588+566.884C358.537+568.109+356.671+569.013+353.988+569.596C353.988+575.196+355.679+579.28+359.062+581.846C362.446+584.413+367.054+585.696+372.888+585.696C380.938+585.696+388.083+583.742+394.325+579.834C400.567+575.925+406.254+570.792+411.388+564.434C416.521+558.075+421.392+550.871+426+542.821C430.608+534.771+435.246+526.605+439.913+518.321C443.413+512.138+447+506.48+450.675+501.346C454.35+496.213+458.637+491.43+463.538+486.996C468.438+482.563+474.3+478.45+481.125+474.659C487.95+470.867+496.262+467.28+506.062+463.896L506.062+463.546C500.812+463.546+494.221+463.692+486.288+463.984C478.354+464.275+469.983+464.946+461.175+465.996C452.367+467.046+443.529+468.592+434.663+470.634C425.796+472.675+417.833+475.505+410.775+479.121C403.717+482.738+397.971+487.288+393.538+492.771C389.104+498.255+386.888+504.963+386.888+512.896C386.888+518.146+388.375+522.317+391.35+525.409C394.325+528.5+398.379+530.046+403.513+530.046C406.546+530.046+409.521+529.434+412.438+528.209C415.354+526.984+417.95+525.263+420.225+523.046C422.5+520.83+424.337+518.205+425.738+515.171C427.138+512.138+427.838+508.813+427.838+505.196C427.838+503.446+427.604+501.725+427.138+500.034C426.671+498.342+426.088+496.738+425.388+495.221L427.138+494.871Z" opacity="1" fill="#ffffff"/>
<path d="M482.163+527.596L483.388+524.446L496.863+524.446L509.988+502.396L528.888+501.696L514.363+524.446L536.588+524.446L535.013+527.596L512.438+527.596C507.187+536.23+502.754+543.492+499.138+549.384C495.521+555.275+492.633+560.175+490.475+564.084C488.317+567.992+486.742+571.113+485.75+573.446C484.758+575.78+484.263+577.821+484.263+579.571C484.263+581.088+484.671+582.313+485.488+583.246C486.304+584.18+487.471+584.646+488.988+584.646C491.904+584.646+495.754+583.159+500.538+580.184C505.321+577.209+510.454+573.096+515.938+567.846C519.671+564.113+523.754+559.738+528.188+554.721C532.621+549.705+536.762+544.63+540.612+539.496L541.663+540.371C538.979+543.871+535.596+548.13+531.513+553.146C527.429+558.163+522.938+563.121+518.038+568.021C515.354+570.705+512.583+573.242+509.725+575.634C506.867+578.025+503.979+580.125+501.062+581.934C498.146+583.742+495.288+585.171+492.488+586.221C489.687+587.271+486.946+587.796+484.263+587.796C480.529+587.796+477.263+586.95+474.463+585.259C471.662+583.567+470.263+580.621+470.263+576.421C470.263+573.388+470.904+570.267+472.188+567.059C473.471+563.85+475.25+560.321+477.525+556.471C479.8+552.621+482.454+548.363+485.488+543.696C488.521+539.03+491.787+533.663+495.288+527.596L482.163+527.596Z" opacity="1" fill="#ffffff"/>
<path d="M644.638+465.296L664.237+464.246C660.387+470.546+655.983+477.517+651.025+485.159C646.067+492.8+640.992+500.588+635.8+508.521C630.608+516.455+625.504+524.3+620.488+532.059C615.471+539.817+611.008+546.992+607.1+553.584C603.192+560.175+600.042+565.921+597.65+570.821C595.258+575.721+594.062+579.28+594.062+581.496C594.062+582.78+594.354+583.8+594.938+584.559C595.521+585.317+596.454+585.696+597.737+585.696C600.188+585.696+603.542+584.471+607.8+582.021C612.058+579.571+616.812+575.605+622.062+570.121C626.379+565.688+630.521+561.109+634.488+556.384C638.454+551.659+642.771+546.205+647.438+540.021L649.188+540.896C647.904+542.646+646.358+544.688+644.55+547.021C642.742+549.355+640.788+551.805+638.688+554.371C636.587+556.938+634.4+559.534+632.125+562.159C629.85+564.784+627.604+567.263+625.388+569.596C619.787+575.43+614.421+580.096+609.288+583.596C604.154+587.096+598.671+588.846+592.838+588.846C590.154+588.846+587.967+588.409+586.275+587.534C584.583+586.659+583.242+585.521+582.25+584.121C581.258+582.721+580.646+581.205+580.413+579.571C580.179+577.938+580.237+576.363+580.588+574.846L580.238+574.496C576.621+578.23+572.654+581.38+568.338+583.946C564.021+586.513+559.063+587.796+553.463+587.796C550.662+587.796+548.3+587.3+546.375+586.309C544.45+585.317+542.875+583.975+541.65+582.284C540.425+580.592+539.55+578.667+539.025+576.509C538.5+574.35+538.238+572.105+538.238+569.771C538.238+563.938+539.754+558.134+542.788+552.359C545.821+546.584+549.729+541.421+554.513+536.871C559.296+532.321+564.604+528.646+570.438+525.846C576.271+523.046+582.046+521.646+587.763+521.646C595.579+521.646+600.829+525.38+603.513+532.846L644.638+465.296ZM563.613+581.846C567.346+581.846+571.225+580.067+575.25+576.509C579.275+572.95+582.95+568.634+586.275+563.559C589.6+558.484+592.312+553.205+594.413+547.721C596.513+542.238+597.562+537.513+597.562+533.546C597.562+530.163+596.688+527.684+594.938+526.109C593.187+524.534+590.971+523.746+588.288+523.746C584.671+523.746+580.908+525.409+577+528.734C573.092+532.059+569.504+536.113+566.238+540.896C562.971+545.68+560.288+550.813+558.188+556.296C556.087+561.78+555.038+566.68+555.038+570.996C555.038+573.796+555.679+576.305+556.963+578.521C558.246+580.738+560.462+581.846+563.613+581.846Z" opacity="1" fill="#ffffff"/>
<path d="M736.938+540.196C733.321+545.096+729.442+549.938+725.3+554.721C721.158+559.505+716.229+564.521+710.513+569.771C702.462+577.005+694.733+581.992+687.325+584.734C679.917+587.475+672.946+588.846+666.413+588.846C659.762+588.846+654.513+586.863+650.663+582.896C646.812+578.93+644.888+573.796+644.888+567.496C644.888+561.896+646.579+556.355+649.962+550.871C653.346+545.388+657.604+540.488+662.737+536.171C667.871+531.855+673.5+528.355+679.625+525.671C685.75+522.988+691.554+521.646+697.038+521.646C702.054+521.646+705.962+522.609+708.763+524.534C711.563+526.459+712.962+529.171+712.962+532.671C712.962+535.471+712+538.038+710.075+540.371C708.15+542.705+705.671+544.805+702.638+546.671C699.604+548.538+696.192+550.171+692.4+551.571C688.608+552.971+684.846+554.196+681.112+555.246C677.379+556.296+673.879+557.171+670.612+557.871C667.346+558.571+664.663+559.155+662.562+559.621C661.979+561.955+661.688+564.055+661.688+565.921C661.688+570.938+663.087+575.021+665.888+578.171C668.688+581.321+672.596+582.896+677.612+582.896C682.513+582.896+687.908+581.438+693.8+578.521C699.692+575.605+705.612+571.346+711.562+565.746C716.113+561.43+720.487+556.909+724.688+552.184C728.888+547.459+732.562+543.055+735.712+538.971L736.938+540.196ZM698.962+528.296C698.962+526.663+698.525+525.496+697.65+524.796C696.775+524.096+695.638+523.746+694.237+523.746C691.321+523.746+688.171+524.971+684.788+527.421C681.404+529.871+678.225+532.875+675.25+536.434C672.275+539.992+669.65+543.725+667.375+547.634C665.1+551.542+663.613+554.955+662.913+557.871C667.696+556.938+672.246+555.392+676.562+553.234C680.879+551.075+684.7+548.625+688.025+545.884C691.35+543.142+694.004+540.225+695.987+537.134C697.971+534.042+698.962+531.096+698.962+528.296Z" opacity="1" fill="#ffffff"/>
<path d="M774.463+523.746C772.479+526.78+769.767+530.63+766.325+535.296C762.883+539.963+759.529+544.863+756.263+549.996C752.996+555.13+750.167+560.175+747.775+565.134C745.383+570.092+744.188+574.321+744.188+577.821C744.188+580.388+744.771+582.342+745.938+583.684C747.104+585.025+749.146+585.696+752.062+585.696C756.496+585.696+760.9+584.005+765.275+580.621C769.65+577.238+773.617+573.038+777.175+568.021C780.733+563.005+783.621+557.638+785.838+551.921C788.054+546.205+789.221+541.013+789.338+536.346C788.404+534.246+787.938+531.971+787.938+529.521C787.938+527.538+788.637+525.73+790.038+524.096C791.438+522.463+793.421+521.646+795.987+521.646C798.904+521.646+801.15+522.9+802.725+525.409C804.3+527.917+804.971+531.738+804.737+536.871C804.737+538.388+804.679+539.875+804.562+541.334C804.446+542.792+804.271+544.046+804.038+545.096C806.371+547.08+808.646+548.421+810.862+549.121C813.079+549.821+815.412+550.171+817.862+550.171C821.946+550.171+825.387+549.092+828.188+546.934C830.988+544.775+833.379+542.355+835.362+539.671L836.763+540.546C834.779+543.93+832.067+546.73+828.625+548.946C825.183+551.163+821.479+552.271+817.513+552.271C815.062+552.271+812.642+551.834+810.25+550.959C807.858+550.084+805.613+548.888+803.513+547.371C802.112+552.855+799.75+558.046+796.425+562.946C793.1+567.846+789.104+572.134+784.438+575.809C779.771+579.484+774.638+582.4+769.038+584.559C763.437+586.717+757.663+587.796+751.713+587.796C745.996+587.796+741.213+586.513+737.362+583.946C733.512+581.38+731.588+576.946+731.588+570.646C731.588+567.613+732.112+564.609+733.163+561.634C734.213+558.659+735.729+555.392+737.713+551.834C739.696+548.275+742.175+544.28+745.15+539.846C748.125+535.413+751.537+530.28+755.388+524.446L774.463+523.746Z" opacity="1" fill="#ffffff"/>
<path d="M872.362+523.746C870.262+526.896+867.521+530.717+864.137+535.209C860.754+539.7+857.458+544.396+854.25+549.296C851.042+554.196+848.242+559.009+845.85+563.734C843.458+568.459+842.262+572.688+842.262+576.421C842.262+578.405+842.7+580.096+843.575+581.496C844.45+582.896+845.937+583.596+848.038+583.596C852.354+583.596+856.904+581.234+861.688+576.509C866.471+571.784+871.837+564.696+877.788+555.246C879.771+551.98+881.725+548.771+883.65+545.621C885.575+542.471+887.354+539.555+888.987+536.871C890.621+534.188+892.108+531.767+893.45+529.609C894.792+527.45+895.871+525.73+896.688+524.446L915.412+523.746C913.429+526.896+910.746+530.834+907.362+535.559C903.979+540.284+900.625+545.213+897.3+550.346C893.975+555.48+891.117+560.496+888.725+565.396C886.333+570.296+885.137+574.555+885.137+578.171C885.137+580.388+885.662+582.196+886.712+583.596C887.763+584.996+889.396+585.696+891.612+585.696C894.646+585.696+897.679+584.88+900.712+583.246C903.746+581.613+906.662+579.484+909.462+576.859C912.263+574.234+914.887+571.23+917.337+567.846C919.788+564.463+921.946+561.021+923.812+557.521C925.679+554.021+927.196+550.58+928.362+547.196C929.529+543.813+930.171+540.78+930.287+538.096C929.587+537.046+928.975+535.88+928.45+534.596C927.925+533.313+927.662+531.855+927.662+530.221C927.662+527.888+928.304+525.875+929.587+524.184C930.871+522.492+932.854+521.646+935.537+521.646C937.521+521.646+939.125+522.084+940.35+522.959C941.575+523.834+942.537+524.942+943.237+526.284C943.938+527.625+944.404+529.142+944.637+530.834C944.871+532.525+944.987+534.188+944.987+535.821C944.987+537.105+944.9+538.65+944.725+540.459C944.55+542.267+944.346+543.988+944.112+545.621C947.963+548.771+952.046+550.346+956.362+550.346C960.329+550.346+963.8+549.238+966.775+547.021C969.75+544.805+972.346+542.238+974.562+539.321L975.787+540.196C973.454+543.463+970.625+546.321+967.3+548.771C963.975+551.221+960.329+552.446+956.362+552.446C953.796+552.446+951.463+552.009+949.362+551.134C947.262+550.259+945.396+549.18+943.762+547.896C942.012+553.496+939.358+558.746+935.8+563.646C932.242+568.546+928.1+572.775+923.375+576.334C918.65+579.892+913.488+582.692+907.887+584.734C902.287+586.775+896.571+587.796+890.737+587.796C884.437+587.796+879.829+586.221+876.913+583.071C873.996+579.921+872.538+575.896+872.538+570.996C872.538+569.946+872.596+568.955+872.712+568.021C872.829+567.088+873.004+566.33+873.237+565.746L872.887+565.396C871.021+568.196+868.95+570.938+866.675+573.621C864.4+576.305+861.95+578.696+859.325+580.796C856.7+582.896+853.871+584.588+850.837+585.871C847.804+587.155+844.538+587.796+841.038+587.796C836.604+587.796+833.367+586.367+831.325+583.509C829.283+580.65+828.262+577.18+828.262+573.096C828.262+569.363+829.225+565.309+831.15+560.934C833.075+556.559+835.379+552.184+838.062+547.809C840.746+543.434+843.546+539.205+846.462+535.121C849.379+531.038+851.829+527.48+853.812+524.446L872.362+523.746Z" opacity="1" fill="#ffffff"/>
<path d="M1053.91+523.746C1049.36+531.33+1045.13+538.096+1041.22+544.046C1037.32+549.996+1033.96+555.275+1031.16+559.884C1028.36+564.492+1026.18+568.488+1024.6+571.871C1023.02+575.255+1022.24+578.23+1022.24+580.796C1022.24+583.363+1023.35+584.646+1025.56+584.646C1026.96+584.646+1028.65+584.15+1030.64+583.159C1032.62+582.167+1034.72+580.884+1036.94+579.309C1039.15+577.734+1041.43+575.896+1043.76+573.796C1046.1+571.696+1048.31+569.596+1050.41+567.496C1052.98+564.813+1055.52+562.1+1058.02+559.359C1060.53+556.617+1062.87+553.963+1065.02+551.396C1067.18+548.83+1069.14+546.467+1070.89+544.309C1072.64+542.15+1074.1+540.313+1075.26+538.796L1076.66+539.846C1073.86+543.58+1070.3+548.042+1065.99+553.234C1061.67+558.425+1057.06+563.53+1052.16+568.546C1046.21+574.613+1040.73+579.338+1035.71+582.721C1030.7+586.105+1025.74+587.796+1020.84+587.796C1017.34+587.796+1014.54+586.746+1012.44+584.646C1010.34+582.546+1009.29+579.921+1009.29+576.771C1009.29+574.555+1009.49+572.571+1009.9+570.821C1010.31+569.071+1010.8+567.73+1011.39+566.796L1011.04+566.446C1008.94+568.663+1006.66+571.025+1004.21+573.534C1001.76+576.042+999.138+578.346+996.337+580.446C993.537+582.546+990.533+584.296+987.325+585.696C984.117+587.096+980.646+587.796+976.912+587.796C973.296+587.796+970.554+586.659+968.687+584.384C966.821+582.109+965.887+579.455+965.887+576.421C965.887+571.988+968.279+565.571+973.062+557.171C977.846+548.771+984.321+537.863+992.487+524.446L1011.04+523.746C1001.82+537.863+994.325+549.442+988.55+558.484C982.775+567.525+979.887+574.263+979.887+578.696C979.887+580.096+980.267+581.263+981.025+582.196C981.783+583.13+982.804+583.596+984.087+583.596C986.304+583.596+988.958+582.663+992.05+580.796C995.142+578.93+998.379+576.421+1001.76+573.271C1005.15+570.121+1008.5+566.505+1011.82+562.421C1015.15+558.338+1018.15+554.08+1020.84+549.646L1035.89+525.146L1053.91+523.746Z" opacity="1" fill="#ffffff"/>
</g>
</g>
</svg>
