<?xml version="1.0" encoding="UTF-8" standalone="no"?> <!-- Created with Vectornator for iOS (http://vectornator.io/) --><!DOCTYPE svg PUBLIC "-//W3C//DTD SVG 1.1//EN" "http://www.w3.org/Graphics/SVG/1.1/DTD/svg11.dtd">
<svg height="100%" style="fill-rule:nonzero;clip-rule:evenodd;stroke-linecap:round;stroke-linejoin:round;" xmlns:xlink="http://www.w3.org/1999/xlink" xmlns="http://www.w3.org/2000/svg" xml:space="preserve" width="100%" xmlns:vectornator="http://vectornator.io" version="1.1" viewBox="0 0 1024 1024">
<metadata>
<vectornator:setting key="DimensionsVisible" value="1"/>
<vectornator:setting key="PencilOnly" value="1"/>
<vectornator:setting key="SnapToPoints" value="0"/>
<vectornator:setting key="OutlineMode" value="0"/>
<vectornator:setting key="RulersVisible" value="1"/>
<vectornator:setting key="CMYKEnabledKey" value="0"/>
<vectornator:setting key="SnapToEdges" value="0"/>
<vectornator:setting key="GuidesVisible" value="1"/>
<vectornator:setting key="DisplayWhiteBackground" value="0"/>
<vectornator:setting key="doHistoryDisabled" value="0"/>
<vectornator:setting key="SnapToGuides" value="1"/>
<vectornator:setting key="TimeLapseWatermarkDisabled" value="0"/>
<vectornator:setting key="DynamicGuides" value="0"/>
<vectornator:setting key="IsolateActiveLayer" value="0"/>
<vectornator:setting key="SnapToGrid" value="0"/>
<vectornator:setting key="Units" value="Pixels"/>
</metadata>
<defs/>
<g id="Copyright" vectornator:layerName="Copyright">
<text x="0" font-family="PingFangSC-Medium" y="0" text-anchor="middle" vectornator:text="Copyright&#x20;(C)&#x20;2021&#x20;Zhenglong&#x20;WU" fill="#141414" font-size="16" vectornator:width="263.84" opacity="0" transform="matrix(1 0 0 1 377.388 241.639)">
<tspan x="132.72" y="17" textLength="259.216">
Copyright (C) 2021 Zhenglong WU</tspan>
</text>
<text x="0" font-family="PingFangSC-Medium" y="0" text-anchor="middle" vectornator:text="版权所有&#x20;(C)&#x20;2021&#x20;吴政隆" fill="#141414" font-size="15" vectornator:width="178.832" opacity="0" transform="matrix(1 0 0 1 419.942 761.61)">
<tspan x="90.166" y="16" textLength="174.06">
版权所有 (C) 2021 吴政隆</tspan>
</text>
</g>
<g id="Circles" vectornator:layerName="Circles">
<path vectornator:shadowColor="#000000" vectornator:shadowOpacity="0.657675" vectornator:shadowRadius="16" d="M509.546+14.3268C233.112+14.3268+9.01459+238.424+9.01459+514.858C9.01455+791.292+233.112+1015.39+509.546+1015.39C785.98+1015.39+1010.08+791.292+1010.08+514.858C1010.08+238.424+785.98+14.3268+509.546+14.3268ZM509.108+31.0455C776.252+31.0455+992.827+247.621+992.827+514.764C992.827+781.908+776.252+998.452+509.108+998.452C241.965+998.452+25.4208+781.908+25.4208+514.764C25.4208+247.621+241.965+31.0455+509.108+31.0455Z" vectornator:shadowOffset="9" fill="#141414" opacity="1" vectornator:shadowAngle="-0.418879"/>
</g>
<g id="Wu" vectornator:layerName="Wu">
<path vectornator:shadowColor="#000000" vectornator:shadowOpacity="0.657675" vectornator:shadowRadius="16" d="M261.858+89.5455C237.279+89.5455+224.452+112.659+224.452+115.139C224.452+116.961+253.046+95.6709+253.046+134.921C253.156+152.291+252.496+169.238+251.858+197.827C250.888+241.318+249.155+274.079+252.515+297.108C254.75+312.434+261.307+322.544+268.452+331.702C277.394+343.162+288.585+352.038+308.327+355.421C347.464+362.127+411.423+355.327+518.358+355.327C619.182+355.327+702.866+359.024+719.733+352.639C770.589+333.389+768.64+311.378+768.64+231.702C768.64+139.573+764.722+123.401+771.421+116.702C778.12+110.003+775.503+93.0768+765.827+93.0768C756.151+93.0768+748.921+95.3206+748.921+110.952C748.921+126.861+738.101+141.482+718.765+147.702C699.984+153.743+673.385+152.898+642.483+152.764C605.992+152.606+563.45+152.514+519.733+152.514C432.561+152.514+353.601+152.389+335.39+152.389C319.349+152.389+300.792+151.604+287.952+138.764C275.244+126.056+272.015+119.411+272.015+111.889C272.015+101.16+276.452+89.5455+261.858+89.5455ZM642.171+168.514C673.155+168.307+695.32+168.778+710.952+171.577C727.738+174.582+735.387+181.372+740.577+190.264C744.02+196.162+747.588+203.518+748.64+212.546C750.089+224.984+748.265+240.724+748.265+261.514C748.265+269.691+748.358+277.734+748.358+285.171C748.358+345.57+709.289+338.483+529.327+338.483C284.951+338.483+270.015+355.857+270.015+245.733C270.015+207.426+277.249+185.283+297.952+175.483C311.845+168.906+330.825+169.455+364.108+169.577C399.452+169.706+450.67+169.608+520.483+169.608C571.37+169.608+611.187+168.722+642.171+168.514Z" vectornator:shadowOffset="9" fill="#141414" opacity="1" vectornator:shadowAngle="-0.418879"/>
<path vectornator:shadowColor="#000000" vectornator:shadowOpacity="0.657675" vectornator:shadowRadius="16" d="M511.141+463.918C708.28+463.918+831.393+464.484+897.439+464.484C935.77+464.484+962.355+466.727+972.949+459.883C983.889+452.816+989.954+439.424+989.954+436.23C989.954+424.442+994.859+433.505+995.861+433.135C999.968+431.62+1003.42+450.272+1003.42+465.724C1003.42+481.176+1005.66+514.047+1000.89+514.047C996.112+514.047+989.857+482.837+955.862+482.837C698.732+482.837+593.006+475.135+549.994+482.816C520.602+488.064+520.792+501.721+520.792+525.087C520.792+546.424+522.224+568.728+544.554+568.728C566.883+568.728+658.327+581.509+728.233+619.113C798.139+656.718+851.191+699.756+869.752+720.519C888.314+741.281+902.393+763.017+914.503+761.876C925.749+760.816+929.125+754.988+934.928+754.988C940.73+754.988+909.551+818.202+898.756+818.202C887.962+818.202+897.317+803.57+897.317+788.458C897.317+777.304+874.169+749.239+859.297+735.566C844.425+721.893+753.217+652.4+731.966+642.496C710.715+632.593+689.583+617.419+678.786+617.419C667.989+617.419+662.668+625.902+662.668+631.763C662.668+637.624+662.925+917.176+662.925+924.07C662.925+930.965+660.124+964.943+671.032+964.943C681.94+964.943+707.636+965.529+707.636+966.993C707.636+968.457+599.006+997.622+599.006+996.592C599.006+995.563+642.986+986.392+642.986+962.437C642.986+938.482+644.03+644.5+644.03+638.871C644.03+633.241+645.216+615.396+639.627+609.807C634.038+604.218+568.886+586.734+511.263+586.734C453.641+586.734+377.427+597.577+377.427+617.104C377.427+636.63+376.575+925.046+376.575+936.176C376.575+947.306+375.719+963.084+379.021+968.832C382.324+974.581+399.382+990.365+399.382+993.783C399.382+997.201+307.814+970.522+307.814+966.057C307.814+961.592+345.562+967.985+351.752+961.795C357.841+954.895+357.942+944.443+357.942+922.727C357.942+901.012+358.744+654.324+358.744+645.953C358.744+637.582+359.695+617.416+344.475+617.416C329.255+617.416+252.013+663.195+232.16+676.957C212.306+690.719+122.397+769.403+122.397+785.48C122.397+801.557+130.329+821.814+127.649+821.814C124.97+821.814+69.7728+744.752+73.0953+744.752C76.8465+744.752+100.319+767.045+106.428+767.045C112.537+767.045+164.537+693.123+249.087+643.074C402.064+552.521+498.085+586.027+498.085+550.14C498.085+519.922+503.522+502.507+493.794+492.78C484.067+483.052+480.548+482.431+467.509+482.431C454.469+482.431+219.045+481.776+203.614+481.776C173.519+481.776+157.022+479.564+143.327+467.758C121.668+449.086+116.767+430.246+116.767+423.361C116.247+402.646+115.648+306.203+115.648+292.636C115.648+279.068+117.045+255.89+111.388+255.89C105.295+255.89+82.5797+270.947+82.5797+269.816C82.5797+268.684+157.979+165.881+157.979+169.093C157.979+172.306+133.314+219.875+133.314+238.425C133.314+249.307+132.873+383.965+133.667+399.721C133.667+408.369+130.668+430.879+142.905+443.102C150.568+450.757+159.483+463.193+176.7+463.193C233.528+463.193+282.239+463.918+511.141+463.918Z" vectornator:shadowOffset="9" fill="#141414" opacity="1" vectornator:shadowAngle="-0.418879"/>
</g>
</svg>
