<svg xmlns="http://www.w3.org/2000/svg" width="279.08" height="35" viewBox="0 0 279.08 35"><rect class="svg__rect" x="0" y="0" width="105.2" height="35" fill="#3E2C41"></rect><rect class="svg__rect" x="103.2" y="0" width="175.88" height="35" fill="#261C2C"></rect><path class="svg__text" d="M15.78 22L14.31 22L14.31 13.47L15.78 13.47L15.78 22ZM22.27 14.66L19.64 14.66L19.64 13.47L26.40 13.47L26.40 14.66L23.74 14.66L23.74 22L22.27 22L22.27 14.66ZM32.62 22L30.16 22L30.16 13.47L32.68 13.47Q33.81 13.47 34.69 13.97Q35.56 14.48 36.04 15.40Q36.52 16.33 36.52 17.52L36.52 17.52L36.52 17.95Q36.52 19.16 36.04 20.08Q35.56 21.00 34.66 21.50Q33.77 22 32.62 22L32.62 22ZM31.64 14.66L31.64 20.82L32.61 20.82Q33.78 20.82 34.40 20.09Q35.02 19.36 35.04 17.99L35.04 17.99L35.04 17.52Q35.04 16.13 34.43 15.40Q33.83 14.66 32.68 14.66L32.68 14.66L31.64 14.66ZM46.57 22L40.99 22L40.99 13.47L46.53 13.47L46.53 14.66L42.47 14.66L42.47 17.02L45.98 17.02L45.98 18.19L42.47 18.19L42.47 20.82L46.57 20.82L46.57 22ZM53.06 22L50.00 13.47L51.62 13.47L53.77 20.14L55.94 13.47L57.56 13.47L54.49 22L53.06 22ZM62.90 22L60.93 13.47L62.40 13.47L63.72 19.88L65.35 13.47L66.59 13.47L68.21 19.89L69.52 13.47L70.99 13.47L69.02 22L67.60 22L65.98 15.77L64.32 22L62.90 22ZM74.93 19.16L74.93 19.16L74.93 13.47L76.40 13.47L76.40 19.18Q76.40 20.03 76.84 20.48Q77.27 20.93 78.11 20.93L78.11 20.93Q79.82 20.93 79.82 19.13L79.82 19.13L79.82 13.47L81.30 13.47L81.30 19.17Q81.30 20.53 80.43 21.32Q79.56 22.12 78.11 22.12L78.11 22.12Q76.65 22.12 75.79 21.33Q74.93 20.55 74.93 19.16ZM86.47 14.03L85.64 14.03L85.64 13.47L87.96 13.47L87.96 14.03L87.15 14.03L87.15 16.62L86.47 16.62L86.47 14.03ZM89.05 16.63L88.40 16.63L88.40 13.47L89.20 13.47L89.96 15.70L90.73 13.47L91.51 13.47L91.51 16.63L90.86 16.63L90.86 14.45L90.14 16.63L89.77 16.63L89.05 14.45L89.05 16.63Z" fill="#FFFFFF"></path><path class="svg__text" d="M123.16 20.91L117.25 18.72L117.25 16.88L123.16 14.69L123.16 16.45L119.33 17.80L123.16 19.16L123.16 20.91ZM128.92 23.20L126.90 23.20L130.86 11.90L132.89 11.90L128.92 23.20ZM136.21 17.80L136.21 17.80Q136.21 16.55 136.82 15.55Q137.42 14.56 138.48 14.00Q139.55 13.43 140.88 13.43L140.88 13.43Q142.21 13.43 143.27 14.00Q144.34 14.56 144.94 15.55Q145.55 16.55 145.55 17.80L145.55 17.80Q145.55 19.05 144.94 20.04Q144.34 21.04 143.27 21.60Q142.21 22.17 140.88 22.17L140.88 22.17Q139.55 22.17 138.48 21.60Q137.42 21.04 136.82 20.04Q136.21 19.05 136.21 17.80ZM138.61 17.80L138.61 17.80Q138.61 18.51 138.91 19.05Q139.21 19.60 139.73 19.90Q140.25 20.20 140.88 20.20L140.88 20.20Q141.52 20.20 142.03 19.90Q142.55 19.60 142.85 19.05Q143.15 18.51 143.15 17.80L143.15 17.80Q143.15 17.09 142.85 16.54Q142.55 16 142.03 15.70Q141.52 15.40 140.88 15.40L140.88 15.40Q140.24 15.40 139.73 15.70Q139.21 16 138.91 16.54Q138.61 17.09 138.61 17.80ZM152.66 22L150.28 22L150.28 13.60L154.12 13.60Q155.26 13.60 156.10 13.98Q156.94 14.35 157.40 15.06Q157.85 15.76 157.85 16.71L157.85 16.71Q157.85 17.66 157.40 18.35Q156.94 19.05 156.10 19.42Q155.26 19.80 154.12 19.80L154.12 19.80L152.66 19.80L152.66 22ZM152.66 15.47L152.66 17.93L153.97 17.93Q154.71 17.93 155.08 17.61Q155.45 17.29 155.45 16.71L155.45 16.71Q155.45 16.12 155.08 15.80Q154.71 15.47 153.97 15.47L153.97 15.47L152.66 15.47ZM169.35 22L162.60 22L162.60 13.60L169.20 13.60L169.20 15.44L164.96 15.44L164.96 16.85L168.69 16.85L168.69 18.63L164.96 18.63L164.96 20.17L169.35 20.17L169.35 22ZM176.49 22L174.15 22L174.15 13.60L176.11 13.60L179.82 18.07L179.82 13.60L182.15 13.60L182.15 22L180.19 22L176.49 17.52L176.49 22ZM186.72 21.24L186.72 21.24L187.50 19.49Q188.06 19.86 188.81 20.09Q189.55 20.32 190.27 20.32L190.27 20.32Q191.64 20.32 191.64 19.64L191.64 19.64Q191.64 19.28 191.25 19.11Q190.86 18.93 190.00 18.74L190.00 18.74Q189.05 18.53 188.41 18.30Q187.78 18.06 187.32 17.55Q186.87 17.03 186.87 16.16L186.87 16.16Q186.87 15.39 187.29 14.77Q187.71 14.15 188.54 13.79Q189.38 13.43 190.58 13.43L190.58 13.43Q191.41 13.43 192.22 13.62Q193.02 13.80 193.64 14.17L193.64 14.17L192.90 15.93Q191.70 15.28 190.57 15.28L190.57 15.28Q189.86 15.28 189.54 15.49Q189.22 15.70 189.22 16.04L189.22 16.04Q189.22 16.37 189.60 16.54Q189.99 16.71 190.84 16.89L190.84 16.89Q191.80 17.10 192.43 17.33Q193.06 17.56 193.52 18.07Q193.98 18.58 193.98 19.46L193.98 19.46Q193.98 20.21 193.56 20.83Q193.14 21.44 192.30 21.80Q191.46 22.17 190.26 22.17L190.26 22.17Q189.24 22.17 188.28 21.92Q187.32 21.67 186.72 21.24ZM198.13 17.80L198.13 17.80Q198.13 16.55 198.73 15.55Q199.34 14.56 200.40 14.00Q201.46 13.43 202.79 13.43L202.79 13.43Q204.12 13.43 205.19 14.00Q206.25 14.56 206.86 15.55Q207.46 16.55 207.46 17.80L207.46 17.80Q207.46 19.05 206.86 20.04Q206.25 21.04 205.19 21.60Q204.13 22.17 202.79 22.17L202.79 22.17Q201.46 22.17 200.40 21.60Q199.34 21.04 198.73 20.04Q198.13 19.05 198.13 17.80ZM200.53 17.80L200.53 17.80Q200.53 18.51 200.83 19.05Q201.13 19.60 201.65 19.90Q202.16 20.20 202.79 20.20L202.79 20.20Q203.43 20.20 203.95 19.90Q204.46 19.60 204.76 19.05Q205.06 18.51 205.06 17.80L205.06 17.80Q205.06 17.09 204.76 16.54Q204.46 16 203.95 15.70Q203.43 15.40 202.79 15.40L202.79 15.40Q202.16 15.40 201.64 15.70Q201.13 16 200.83 16.54Q200.53 17.09 200.53 17.80ZM212.12 18.26L212.12 18.26L212.12 13.60L214.50 13.60L214.50 18.19Q214.50 20.20 216.09 20.20L216.09 20.20Q217.68 20.20 217.68 18.19L217.68 18.19L217.68 13.60L220.02 13.60L220.02 18.26Q220.02 20.13 218.98 21.15Q217.94 22.17 216.07 22.17L216.07 22.17Q214.20 22.17 213.16 21.15Q212.12 20.13 212.12 18.26ZM227.49 22L225.11 22L225.11 13.60L228.95 13.60Q230.09 13.60 230.93 13.98Q231.77 14.35 232.23 15.06Q232.68 15.76 232.68 16.71L232.68 16.71Q232.68 17.62 232.26 18.30Q231.83 18.98 231.04 19.36L231.04 19.36L232.85 22L230.30 22L228.78 19.77L227.49 19.77L227.49 22ZM227.49 15.47L227.49 17.93L228.80 17.93Q229.54 17.93 229.91 17.61Q230.28 17.29 230.28 16.71L230.28 16.71Q230.28 16.12 229.91 15.79Q229.54 15.47 228.80 15.47L228.80 15.47L227.49 15.47ZM237.04 17.80L237.04 17.80Q237.04 16.54 237.64 15.54Q238.24 14.55 239.29 13.99Q240.34 13.43 241.66 13.43L241.66 13.43Q242.81 13.43 243.74 13.84Q244.66 14.25 245.27 15.02L245.27 15.02L243.76 16.39Q242.95 15.40 241.78 15.40L241.78 15.40Q241.10 15.40 240.56 15.70Q240.03 16 239.73 16.54Q239.44 17.09 239.44 17.80L239.44 17.80Q239.44 18.51 239.73 19.05Q240.03 19.60 240.56 19.90Q241.10 20.20 241.78 20.20L241.78 20.20Q242.95 20.20 243.76 19.22L243.76 19.22L245.27 20.58Q244.67 21.35 243.74 21.76Q242.81 22.17 241.66 22.17L241.66 22.17Q240.34 22.17 239.29 21.61Q238.24 21.05 237.64 20.05Q237.04 19.06 237.04 17.80ZM256.55 22L249.81 22L249.81 13.60L256.40 13.60L256.40 15.44L252.17 15.44L252.17 16.85L255.90 16.85L255.90 18.63L252.17 18.63L252.17 20.17L256.55 20.17L256.55 22ZM267.13 18.72L261.22 20.91L261.22 19.16L265.04 17.80L261.22 16.45L261.22 14.69L267.13 16.88L267.13 18.72Z" fill="#FFFFFF" x="116.2"></path></svg>